<svg width="160" height="50" viewBox="0 0 160 50" fill="none" xmlns="http://www.w3.org/2000/svg">
<path d="M129.171 38.2725C128.792 38.2725 128.526 38.1495 128.38 37.9033L128.357 38.2195H127.888V34.7184H128.416V35.9597C128.575 35.7305 128.832 35.6138 129.184 35.6138C129.469 35.6138 129.693 35.705 129.861 35.8896C130.027 36.0742 130.109 36.3119 130.109 36.6068V37.2774C130.109 37.5723 130.024 37.81 129.857 37.9946C129.689 38.1792 129.462 38.2704 129.174 38.2704L129.171 38.2725ZM129.017 37.8015C129.227 37.8015 129.373 37.7442 129.456 37.6317C129.536 37.5193 129.579 37.3601 129.579 37.1543V36.732C129.579 36.3013 129.392 36.0849 129.019 36.0849C128.616 36.0849 128.414 36.3098 128.414 36.7617V37.1267C128.414 37.5766 128.616 37.8036 129.019 37.8036L129.017 37.8015Z" fill="#05D182"/>
<path d="M131.508 39.0831L131.005 39.0873L131.323 38.2088L130.404 35.6689H130.964L131.578 37.5065L132.244 35.6689H132.772L131.506 39.0831H131.508Z" fill="#05D182"/>
<path d="M134.96 37.3368V38.2195H134.232V34.8627H134.96V36.3459L136.187 34.8627H137.05L135.866 36.2631L137.069 38.2174H136.206L135.363 36.8551L134.958 37.3347L134.96 37.3368Z" fill="#05D182"/>
<path d="M139.115 37.0822H138.463V38.2195H137.735V34.8627H139.049C139.308 34.8627 139.53 34.8924 139.719 34.9539C139.908 35.0154 140.052 35.0982 140.156 35.2064C140.26 35.3146 140.333 35.4292 140.379 35.5565C140.426 35.6838 140.449 35.8217 140.449 35.9703C140.449 36.4498 140.239 36.7766 139.817 36.9527L140.396 38.2195H139.62L139.115 37.0822ZM139.053 35.4716H138.463V36.4838H139.053C139.49 36.4838 139.711 36.3162 139.711 35.9809C139.711 35.6456 139.492 35.4716 139.053 35.4716Z" fill="#05D182"/>
<path d="M143.403 38.2195L143.178 37.5426H141.966L141.748 38.2195H141.014L142.176 34.8627H142.991L144.167 38.2195H143.403ZM142.983 36.9633L142.565 35.7114L142.153 36.9633H142.983Z" fill="#05D182"/>
<path d="M147.006 36.8912H145.563V38.2195H144.835V34.8627H147.131V35.4907H145.563V36.2673H147.006V36.8912Z" fill="#05D182"/>
<path d="M150.43 35.5013H149.442V38.2194H148.714V35.5013H147.731V34.8647H150.43V35.5013Z" fill="#05D182"/>
<path d="M152.434 38.2767C152.177 38.2767 151.956 38.2407 151.768 38.1685C151.579 38.0964 151.434 37.9988 151.335 37.8757C151.235 37.7526 151.161 37.6232 151.114 37.4853C151.067 37.3473 151.044 37.2009 151.044 37.0439V36.036C151.044 35.879 151.067 35.7326 151.114 35.5947C151.161 35.4567 151.233 35.3273 151.335 35.2042C151.434 35.0811 151.581 34.9835 151.768 34.9114C151.956 34.8393 152.179 34.8032 152.434 34.8032C152.688 34.8032 152.915 34.8393 153.104 34.9114C153.293 34.9835 153.437 35.0811 153.537 35.2042C153.637 35.3273 153.711 35.4567 153.758 35.5947C153.805 35.7326 153.828 35.879 153.828 36.036V37.0439C153.828 37.2009 153.805 37.3473 153.758 37.4853C153.711 37.6232 153.637 37.7526 153.537 37.8757C153.437 37.9988 153.291 38.0964 153.104 38.1685C152.915 38.2407 152.693 38.2767 152.434 38.2767ZM152.434 37.638C152.676 37.638 152.848 37.5786 152.949 37.4577C153.049 37.3367 153.1 37.1861 153.1 37.0036V36.0742C153.1 35.8917 153.049 35.7411 152.949 35.6201C152.85 35.4992 152.678 35.4397 152.434 35.4397C152.19 35.4397 152.024 35.4992 151.922 35.6201C151.823 35.7411 151.772 35.8917 151.772 36.0742V37.0036C151.772 37.1861 151.823 37.3367 151.922 37.4577C152.022 37.5765 152.194 37.638 152.434 37.638Z" fill="#05D182"/>
<path d="M156.79 38.2195L155.332 36.1761V38.2195H154.643V34.8627H155.254L156.705 36.906V34.8627H157.395V38.2195H156.79Z" fill="#05D182"/>
<path d="M72.6926 11.8252H77.7151V21.4734C77.7151 27.0201 73.2188 31.5185 67.6701 31.5185C62.1213 31.5185 57.625 27.0222 57.625 21.4734V11.8252H62.6475V21.4734C62.6475 24.2425 64.901 26.496 67.6701 26.496C70.4391 26.496 72.6926 24.2425 72.6926 21.4734V11.8252Z" fill="#05D182"/>
<path d="M101.168 21.4735V31.1218H96.1457V21.4735C96.1457 18.7045 93.8923 16.451 91.1232 16.451C88.3541 16.451 86.1007 18.7045 86.1007 21.4735V31.1218H81.0781V21.4735C81.0781 15.9269 85.5744 11.4285 91.1232 11.4285C96.6719 11.4285 101.168 15.9248 101.168 21.4735Z" fill="#05D182"/>
<path d="M138.582 5.9391L130.398 31.126H125.375L133.559 5.9391H138.582Z" fill="#05D182"/>
<path d="M49.1884 5.9391H54.2109V21.4756C54.2109 27.0223 49.7146 31.5207 44.1659 31.5207C43.0816 31.5207 42.0397 31.3467 41.0615 31.0305L42.6148 26.252C43.1028 26.4112 43.6248 26.5003 44.1659 26.5003C46.9349 26.5003 49.1884 24.2468 49.1884 21.4778V5.9391Z" fill="#05D182"/>
<path d="M148.029 26.8313C146.327 26.8313 144.808 26.0398 143.823 24.807L158.033 20.2088C157.407 15.2606 153.17 11.4305 148.031 11.4305C142.461 11.4305 137.945 15.9268 137.945 21.4756C137.945 27.0244 142.461 31.5207 148.031 31.5207C152.274 31.5207 155.905 28.9086 157.392 25.2101L152.896 23.7545C152.035 25.5709 150.178 26.8334 148.031 26.8334L148.029 26.8313ZM148.029 16.1178C149.73 16.1178 151.25 16.9093 152.236 18.1421L142.656 21.2422C142.779 18.3967 145.141 16.1178 148.029 16.1178Z" fill="#05D182"/>
<path d="M120.613 29.0083C122.699 27.1686 124.017 24.476 124.017 21.4756C124.017 15.929 119.521 11.4305 113.972 11.4305C108.423 11.4305 103.927 15.9268 103.927 21.4756C103.927 27.0244 108.423 31.5207 113.972 31.5207C116.741 31.5207 118.994 33.7741 118.994 36.5432C118.994 39.3123 116.741 41.5657 113.972 41.5657C111.203 41.5657 108.949 39.3123 108.949 36.5432C108.949 36.0021 109.038 35.4801 109.198 34.9921L104.419 33.4389C104.101 34.417 103.929 35.4589 103.929 36.5432C103.929 42.0898 108.425 46.5882 113.974 46.5882C119.523 46.5882 124.019 42.092 124.019 36.5432C124.019 33.5428 122.701 30.8501 120.615 29.0105L120.613 29.0083ZM113.974 26.496C111.205 26.496 108.951 24.2426 108.951 21.4735C108.951 18.7044 111.205 16.4509 113.974 16.4509C116.743 16.4509 118.996 18.7044 118.996 21.4735C118.996 24.2426 116.743 26.496 113.974 26.496Z" fill="#05D182"/>
<path d="M25.964 9.41681L16.3772 16.3809L12.7148 27.6503L22.2995 20.6862L25.9618 9.41681H25.964ZM16.5831 22.3264L18.1066 17.637L20.5701 19.4279L16.5809 22.3264H16.5831Z" fill="#05D182"/>
<path d="M32.5546 8.93095L24.3874 2.996H14.2914L6.12212 8.93095L3.00293 18.5325L6.12212 28.1341L14.2893 34.0691H24.3853L32.5525 28.1341L35.6716 18.5325L32.5525 8.93095H32.5546ZM19.3394 31.056C12.4241 31.056 6.81598 25.4499 6.81598 18.5325C6.81598 11.6151 12.422 6.0091 19.3394 6.0091C26.2568 6.0091 31.8628 11.6151 31.8628 18.5325C31.8628 25.4499 26.2568 31.056 19.3394 31.056Z" fill="#05D182"/>
</svg>
